<svg width="18" height="16" viewBox="0 0 18 16" fill="none" xmlns="http://www.w3.org/2000/svg">
<path fill-rule="evenodd" clip-rule="evenodd" d="M1.3855 8C1.3855 4.13401 4.81641 1 9.04866 1C11.0811 1 13.0302 1.7375 14.4673 3.05025C15.9044 4.36301 16.7118 6.14348 16.7118 8C16.7118 11.866 13.2809 15 9.04866 15C4.81641 15 1.3855 11.866 1.3855 8ZM2.48023 8C2.48023 11.3137 5.42102 14 9.04866 14C12.6763 14 15.6171 11.3137 15.6171 8C15.6171 4.68629 12.6763 2 9.04866 2C5.42102 2 2.48023 4.68629 2.48023 8ZM9.59602 4V9.5H8.50129V4H9.59602ZM8.2276 11.75C8.2276 11.3358 8.5952 11 9.04866 11C9.50211 11 9.86971 11.3358 9.86971 11.75C9.86971 12.1642 9.50211 12.5 9.04866 12.5C8.5952 12.5 8.2276 12.1642 8.2276 11.75Z" fill="#DB2929"/>
</svg>
