<?xml version="1.0" standalone="no"?>
<!DOCTYPE svg PUBLIC "-//W3C//DTD SVG 20010904//EN"
 "http://www.w3.org/TR/2001/REC-SVG-20010904/DTD/svg10.dtd">
<svg version="1.0" xmlns="http://www.w3.org/2000/svg"
 width="256.000000pt" height="115.000000pt" viewBox="0 0 256.000000 115.000000"
 preserveAspectRatio="xMidYMid meet">

<g transform="translate(0.000000,115.000000) scale(0.100000,-0.100000)"
fill="#000000" stroke="none">
<path d="M920 867 c0 -105 16 -122 124 -137 44 -6 93 -17 109 -25 17 -8 32
-15 35 -15 2 0 2 36 0 81 -4 103 -19 118 -139 143 -46 10 -94 20 -106 23 -22
5 -23 3 -23 -70z m190 -20 c19 -9 26 -21 28 -50 4 -43 15 -40 -100 -22 -41 6
-68 35 -68 73 0 24 2 24 58 17 31 -4 68 -12 82 -18z"/>
<path d="M1342 863 c-86 -18 -97 -31 -105 -115 l-6 -58 31 16 c17 9 55 18 85
21 39 4 58 12 68 27 15 21 21 127 8 125 -5 -1 -41 -8 -81 -16z m48 -63 c0 -23
-34 -40 -81 -40 -43 0 -41 36 4 49 55 16 77 13 77 -9z"/>
<path d="M890 619 c0 -65 2 -73 29 -100 29 -29 30 -29 150 -29 l121 0 0 63 c0
110 -39 137 -200 137 l-100 0 0 -71z m218 5 c18 -12 22 -24 20 -52 l-3 -37
-59 -3 c-33 -2 -72 2 -88 9 -25 10 -28 17 -28 55 l0 44 68 0 c46 0 75 -5 90
-16z"/>
<path d="M1303 675 c-44 -19 -65 -55 -61 -104 l3 -41 107 73 c59 39 107 75
108 80 0 12 -124 7 -157 -8z"/>
<path d="M1422 571 l-113 -76 82 -3 c116 -4 153 24 147 112 l-3 44 -113 -77z"/>
<path d="M497 463 c-4 -3 -7 -15 -7 -25 0 -13 8 -18 30 -18 25 0 30 4 30 25 0
20 -5 25 -23 25 -13 0 -27 -3 -30 -7z"/>
<path d="M150 310 l0 -100 100 0 c151 0 200 29 200 117 0 75 -17 83 -170 83
l-130 0 0 -100z m240 45 c20 -24 4 -80 -26 -93 -39 -19 -151 -16 -158 4 -10
26 -7 79 6 92 18 18 162 16 178 -3z"/>
<path d="M665 396 c-38 -16 -53 -35 -61 -74 l-6 -32 116 0 c72 0 116 -4 116
-10 0 -19 -51 -30 -141 -30 -82 0 -89 -1 -89 -20 0 -19 7 -20 105 -20 142 0
195 27 195 100 0 19 -8 20 -115 20 -66 0 -115 4 -115 10 0 16 71 30 153 30 70
0 77 2 77 20 0 19 -7 20 -102 20 -62 -1 -115 -6 -133 -14z"/>
<path d="M1011 395 c-50 -22 -60 -42 -61 -117 l0 -68 30 0 c25 0 30 4 30 25 0
25 1 25 89 25 85 0 90 -1 93 -22 2 -17 10 -23 28 -23 25 0 25 0 25 95 l0 95
-100 2 c-71 2 -110 -2 -134 -12z m179 -65 l0 -30 -85 0 c-67 0 -87 3 -91 15
-13 32 15 45 97 45 l79 0 0 -30z"/>
<path d="M1355 396 c-46 -20 -57 -41 -63 -116 l-5 -70 152 0 151 0 0 55 0 55
-55 0 c-42 0 -55 -3 -55 -15 0 -10 10 -15 31 -15 24 0 30 -4 27 -17 -3 -15
-17 -18 -90 -21 -86 -3 -88 -2 -94 22 -3 13 0 37 8 53 13 28 14 28 121 31 106
3 107 3 107 27 0 25 0 25 -102 25 -62 -1 -115 -6 -133 -14z"/>
<path d="M1640 310 l0 -100 25 0 c20 0 25 5 25 25 0 23 3 25 48 25 39 0 53 -5
72 -25 16 -17 34 -25 58 -25 35 0 35 0 16 21 -18 20 -18 21 1 35 10 8 22 14
25 14 13 0 30 52 30 90 l0 40 -150 0 -150 0 0 -100z m248 39 c7 -36 -25 -50
-111 -47 -70 3 -82 6 -85 21 -8 43 3 48 100 45 76 -2 93 -6 96 -19z"/>
<path d="M2041 393 c-42 -21 -63 -68 -59 -131 l3 -47 90 -3 c113 -4 151 3 181
33 21 21 24 34 24 95 l0 70 -102 0 c-76 0 -112 -5 -137 -17z m179 -72 c0 -54
-25 -71 -107 -71 l-63 0 0 43 c0 24 5 48 12 55 7 7 42 12 85 12 l73 0 0 -39z"/>
<path d="M490 295 l0 -85 30 0 30 0 0 85 0 85 -30 0 -30 0 0 -85z"/>
</g>
</svg>
